<?xml version="1.0" encoding="UTF-8" standalone="no"?>
<svg
   xmlns:dc="http://purl.org/dc/elements/1.1/"
   xmlns:cc="http://creativecommons.org/ns#"
   xmlns:rdf="http://www.w3.org/1999/02/22-rdf-syntax-ns#"
   xmlns:svg="http://www.w3.org/2000/svg"
   xmlns="http://www.w3.org/2000/svg"
   xmlns:sodipodi="http://sodipodi.sourceforge.net/DTD/sodipodi-0.dtd"
   xmlns:inkscape="http://www.inkscape.org/namespaces/inkscape"
   xml:space="preserve"
   width="685.32251"
   height="788.82825"
   version="1.1"
   style="clip-rule:evenodd;fill-rule:evenodd;image-rendering:optimizeQuality;shape-rendering:geometricPrecision;text-rendering:geometricPrecision"
   viewBox="0 0 18132.492 20871.08"
   id="svg69"
   sodipodi:docname="logo.svg"
   inkscape:version="1.0.2-2 (e86c870879, 2021-01-15)"><sodipodi:namedview
   pagecolor="#ffffff"
   bordercolor="#666666"
   borderopacity="1"
   objecttolerance="10"
   gridtolerance="10"
   guidetolerance="10"
   inkscape:pageopacity="0"
   inkscape:pageshadow="2"
   inkscape:window-width="1920"
   inkscape:window-height="1034"
   id="namedview39"
   showgrid="false"
   inkscape:zoom="0.76795444"
   inkscape:cx="252.54846"
   inkscape:cy="501.9026"
   inkscape:window-x="1912"
   inkscape:window-y="-8"
   inkscape:window-maximized="1"
   inkscape:current-layer="svg69"
   units="px"
   lock-margins="false"
   fit-margin-top="0"
   fit-margin-left="0"
   fit-margin-right="0"
   fit-margin-bottom="0" /><metadata
   id="metadata73"><rdf:RDF><cc:Work
       rdf:about=""><dc:format>image/svg+xml</dc:format><dc:type
         rdf:resource="http://purl.org/dc/dcmitype/StillImage" /><dc:title></dc:title></cc:Work></rdf:RDF></metadata>
 <defs
   id="defs4"><style
     type="text/css"
     id="style2">
   <![CDATA[
    .fil0 {fill:#010102}
    .fil3 {fill:#111112}
    .fil12 {fill:#141414}
    .fil14 {fill:#171917}
    .fil2 {fill:#1A1514}
    .fil4 {fill:#1E7258}
    .fil16 {fill:#B03331}
    .fil7 {fill:#C83936}
    .fil18 {fill:#E7D953}
    .fil19 {fill:#EEE86A}
    .fil15 {fill:#EFEFF0}
    .fil6 {fill:#F6F6F6}
    .fil5 {fill:#F7EA47}
    .fil17 {fill:#F7EB38}
    .fil13 {fill:#FBEC1A}
    .fil9 {fill:#FCF213}
    .fil11 {fill:#FDED13}
    .fil8 {fill:#FDF20B}
    .fil10 {fill:#FEF105}
    .fil1 {fill:#FEFEFE}
   ]]>
  </style></defs>
 <g
   id="Слой_x0020_1"
   transform="matrix(1.4086437,0,0,1.4086437,-13222.508,-4328.6194)">
  <metadata
   id="CorelCorpID_0Corel-Layer" />
  <g
   id="_643743648">
   <path
   class="fil0"
   d="m 9388,4227 c -21,319 217,810 310,1109 110,355 254,704 378,1037 l 298,747 c 37,104 68,175 106,267 42,101 47,165 94,257 172,338 279,648 458,962 40,70 72,155 109,240 125,281 160,236 3,499 -211,355 -251,683 -236,1182 6,215 190,948 258,1160 83,257 226,537 511,564 139,13 175,-60 298,-78 59,82 -16,6 101,194 l 336,1186 c 72,262 246,610 388,830 l 1176,1914 c 151,234 316,470 466,756 l 506,712 c 122,117 877,133 1109,121 945,-49 895,-185 1252,-857 40,-76 54,-142 101,-221 328,-548 595,-1256 821,-1644 147,-253 277,-536 427,-793 l 212,-386 c 208,-405 228,-440 346,-874 51,-189 116,-271 133,-492 13,-170 69,-354 103,-514 41,-189 33,-363 79,-546 205,-31 203,69 419,-78 80,-54 688,-1668 528,-2138 -224,-657 -438,-501 -492,-634 -37,-91 152,-312 214,-512 81,-258 615,-1139 777,-1444 232,-437 763,-1134 1085,-1504 76,-88 130,-89 136,-262 -143,29 -311,226 -524,345 -132,74 -438,295 -557,287 14,-138 172,-259 263,-379 213,-281 867,-890 879,-1116 -130,-2 -501,317 -862,484 -430,200 -411,218 -922,419 -295,116 -901,124 -1249,89 -745,-74 -1405,-428 -2147,-568 -411,-77 -750,-139 -1194,-183 -358,-36 -411,-427 94,-695 773,-411 884,108 1026,-36 57,-111 -28,-137 -120,-209 -218,-169 -283,-324 -800,-349 -298,-15 -727,24 -999,126 -662,247 -1115,606 -1605,1060 l -819,698 c -177,144 -509,332 -720,426 -505,224 -754,361 -1439,14 C 9551,4918 9585,4323 9387,4227 Z"
   id="path7" />
   <path
   class="fil1"
   d="m 15190,17590 c 667,9 644,42 1294,-65 443,-73 354,-113 634,-666 70,-140 137,-276 220,-427 293,-535 589,-1174 866,-1725 l 435,-856 c 182,-331 400,-776 446,-1160 l 145,-846 c 76,-327 115,-807 121,-1170 5,-387 -60,-820 -118,-1187 -46,-290 -274,-800 -99,-1070 151,-231 439,-527 417,-882 -26,-428 -308,-1069 -875,-1082 -404,-9 -914,505 -1188,767 -210,201 -483,415 -671,624 -668,746 -401,653 -981,91 l -661,-634 c -258,-223 -856,-649 -1198,-747 -492,-141 -1161,-123 -1511,300 -379,458 -185,1019 68,1493 29,54 82,160 118,206 71,92 100,66 151,176 111,241 -133,440 -307,945 -49,143 -133,373 -154,519 -198,1348 88,3106 765,4280 l 1791,2744 c 98,145 159,265 293,371 z"
   id="path9" />
   <path
   class="fil2"
   d="m 17254,11673 c 95,1 709,-188 899,-27 -24,79 -203,147 -338,212 -499,237 -171,139 -783,339 -148,48 -261,137 -441,114 -26,-120 -12,-142 28,-226 l 136,52 c 4,0 12,-4 17,-5 91,-226 -199,-610 -321,-149 l -168,629 c -44,157 -36,164 -136,260 -258,10 -227,-7 -301,-217 -43,-122 -94,-248 -136,-361 -189,-502 -140,-626 -397,-594 -64,108 -106,350 -60,449 107,-48 33,31 72,-101 25,-84 -15,-50 63,-69 26,51 81,292 84,350 -210,2 -943,-162 -1109,-227 -334,-132 -379,-169 -659,-337 -112,-67 -130,-111 -244,-128 4,150 141,452 208,588 102,207 330,948 395,1193 59,226 76,429 149,653 260,797 454,1648 1451,1736 675,60 1078,5 1525,-420 77,-73 132,-78 204,-194 256,-410 451,-1584 625,-2160 l 185,-610 c 19,-61 29,-97 46,-156 29,-100 13,-91 114,-108 l 66,508 c 24,191 30,346 67,534 l 83,13 c 57,-196 -15,-1446 -75,-1616 -93,-264 -300,-268 -610,-196 -131,31 -245,51 -363,90 -109,36 -245,57 -272,182 z"
   id="path11" />
   <path
   class="fil3"
   d="m 18805,9670 c -263,-19 -491,80 -736,123 -999,176 -1373,154 -2407,157 -660,2 -1863,-176 -2460,-523 -88,-51 -233,-121 -340,-130 14,132 143,289 214,424 50,95 89,113 136,190 163,269 472,684 699,894 136,125 344,72 506,16 170,-59 302,-122 427,-218 65,-50 115,-79 178,-120 82,-54 115,-90 183,-140 329,-238 618,-268 1029,-239 403,28 782,491 1207,708 176,90 301,-41 425,-124 154,-103 386,-321 515,-456 125,-130 418,-383 422,-562 z"
   id="path13" />
   <path
   class="fil4"
   d="m 12548,6239 2318,-301 c 254,-10 346,-9 575,25 256,38 769,159 917,378 69,101 124,250 132,373 16,251 18,200 390,71 208,-72 457,-250 548,-450 56,-124 124,-292 37,-401 -479,-596 -1751,-431 -2500,-342 -569,68 -1145,184 -1689,355 -160,51 -673,195 -729,292 z"
   id="path15" />
   <path
   class="fil5"
   d="m 15112,13806 c 75,-28 10,59 52,-44 -150,-15 -38,41 -105,-74 -28,-47 -11,-39 -65,-63 l -24,-659 c -3,-44 -3,-83 2,-126 l 19,-84 c 107,45 18,41 132,70 110,28 97,-23 129,79 0,-4 -1,-10 0,-12 l 19,-28 c 1,-11 13,-10 19,-16 103,45 201,81 298,118 l -148,845 -168,3 c -58,7 10,-61 -20,5 l -92,-19 c 72,195 -19,859 12,1156 179,139 1109,202 1321,107 l 4,-889 c -274,-100 -197,-51 -141,-538 19,-167 58,-548 45,-716 -170,5 -20,125 -229,174 -168,40 -264,-15 -410,-8 -53,138 -108,669 -69,842 153,15 104,6 227,52 112,42 137,2 162,103 -223,41 -153,17 -159,86 -46,14 -16,-50 -36,61 -4,23 -2,99 -2,126 -1,170 17,528 -19,653 -43,-20 -62,63 -69,-179 l -26,-525 c 1,-189 102,-189 -129,-224 -131,-20 -340,-72 -356,-201 l 194,-3 c 66,-146 167,-783 142,-965 l -599,-207 c -123,-40 -108,50 -107,257 l 49,798 149,42 z"
   id="path17" />
   <path
   class="fil6"
   d="m 11844,11237 c -64,-21 -83,42 -153,-221 -29,-111 -6,-214 -87,-256 -112,100 -44,366 -54,533 -134,-20 -146,-261 -147,-395 -3,-412 306,-302 72,-770 -131,-262 -99,-244 -195,-244 -22,52 -78,461 -78,541 -1,223 48,387 54,597 15,530 62,640 345,945 122,58 506,-111 471,-389 -30,-238 -33,-586 -42,-830 l -114,-763 c -48,-228 -92,-489 -237,-631 -200,-25 -387,153 -245,292 210,204 375,613 371,927 -7,525 35,410 40,662 z"
   id="path19" />
   <path
   class="fil7"
   d="m 14156,13177 c 2,217 176,860 228,1107 19,88 66,95 136,313 60,185 205,444 317,590 339,441 1486,628 2073,219 46,-32 235,-174 254,-192 88,-85 355,-762 391,-1002 17,-77 12,12 53,-100 l 274,-1122 c -94,59 -115,156 -169,328 l -247,782 c -86,283 -191,451 -314,701 -112,228 -290,425 -547,461 -431,60 -1433,61 -1678,-288 l -297,-469 c -125,-320 -225,-717 -325,-981 l -90,-285 c -1,-1 -36,-49 -58,-61 z"
   id="path21" />
   <path
   class="fil8"
   d="m 15921,14172 c 71,243 0,643 -9,885 238,0 322,21 531,-46 l -2,-742 c -77,-53 -43,-1 -132,-102 -4,-4 -10,-9 -14,-13 -81,-104 9,-122 -100,-201 153,-48 33,-70 117,-422 37,-155 14,-255 11,-408 -149,10 -186,50 -274,59 -142,15 39,-43 -264,-25 l -69,727 c 125,-30 44,7 121,-51 35,118 23,33 148,104 50,28 116,62 150,98 l -8,91 -207,45 z"
   id="path23" />
   <path
   class="fil8"
   d="m 16501,13997 c 142,59 344,-32 509,-32 2,-405 78,-643 54,-1150 -10,-218 -96,-128 -224,-88 -355,110 -330,58 -334,489 -1,123 -45,453 -37,673 1,22 -1,29 3,49 10,47 15,37 29,60 z"
   id="path25" />
   <path
   class="fil8"
   d="m 17682,12317 c -13,-7 39,-78 -162,42 -314,189 -409,167 -377,425 18,150 -14,978 8,1014 40,63 288,-61 323,-114 33,-50 109,-338 138,-413 61,-155 158,-786 70,-953 z"
   id="path27" />
   <path
   class="fil9"
   d="m 14517,13714 224,4 c 84,-10 93,-39 90,-255 -1,-91 -6,-183 -9,-274 -26,-657 117,-498 -266,-714 -92,-52 -192,-148 -303,-125 -21,202 -31,608 46,760 88,173 153,428 218,603 z"
   id="path29" />
   <path
   class="fil6"
   d="m 19867,10728 6,-343 c -105,8 -106,118 -292,375 -70,96 -76,427 -65,568 415,330 493,-448 551,-726 54,-262 261,-965 77,-1186 -159,33 -340,432 -205,618 155,216 126,286 37,546 -37,108 -21,113 -110,149 z"
   id="path31" />
   <path
   class="fil9"
   d="m 14040,10574 c 329,41 667,-164 877,-399 16,-18 35,-32 40,-58 9,-45 23,-67 -91,-87 -72,-13 -251,-40 -316,-20 -106,32 -103,183 -302,138 -203,-46 -63,-330 -634,-306 16,309 277,534 427,731 z"
   id="path33" />
   <path
   class="fil10"
   d="m 15112,13806 46,-4 92,19 c 30,-67 -37,2 20,-5 l 168,-3 148,-845 c -97,-37 -195,-73 -298,-118 -6,6 -18,5 -19,16 l -19,28 c -1,1 1,8 0,12 -32,-102 -19,-52 -129,-79 -114,-29 -25,-25 -132,-70 l -19,84 c -4,43 -4,83 -2,126 l 24,659 c 53,24 37,16 65,63 68,115 -45,59 105,74 -42,103 23,16 -52,44 z"
   id="path35" />
   <path
   class="fil11"
   d="m 16626,14175 c -37,210 -45,652 -37,880 304,31 335,-170 454,-359 107,-169 64,-91 91,-311 17,-136 53,-263 7,-382 l -108,-27 c -103,183 -136,68 -408,199 z"
   id="path37" />
   <path
   class="fil10"
   d="m 15251,14052 c -26,140 -27,310 -28,457 -1,234 9,259 39,456 l 416,61 c 1,-79 15,-135 -13,-175 16,224 4,119 47,172 25,-31 70,62 33,-241 -34,-275 -12,-262 -20,-350 -16,-182 -98,-19 -19,-207 24,-57 12,-10 27,-84 -139,9 -160,-13 -295,0 0,-1 -5,-85 -107,-104 -147,-28 -37,-3 -80,14 z"
   id="path39" />
   <path
   class="fil11"
   d="m 16920,10065 c -22,131 112,194 202,271 363,309 699,196 1005,-136 374,-407 -381,-191 -436,-138 -13,13 -124,238 -350,78 -111,-79 -152,-129 -421,-75 z"
   id="path41" />
   <path
   class="fil12"
   d="m 13571,12752 c 158,-135 -423,-562 -288,-1125 43,-181 265,-276 487,-284 186,-6 627,65 727,36 -30,-93 -28,-83 -327,-114 -257,-27 -595,-73 -780,25 -415,219 -349,491 -160,926 51,117 85,177 162,281 55,74 120,207 180,255 z"
   id="path43" />
   <path
   class="fil13"
   d="m 15074,14843 c 13,-36 26,-845 -8,-882 -72,-37 -168,-40 -253,-75 -91,-38 -141,-74 -250,-81 24,232 149,402 203,583 27,89 196,436 238,458 95,50 66,-2 69,-3 z"
   id="path45" />
   <path
   class="fil14"
   d="m 16609,11438 c 115,-19 49,-43 174,-71 74,65 94,150 122,307 55,295 -25,318 102,344 46,-101 28,-455 7,-580 -61,-372 -103,-273 -252,-319 -105,-32 -92,-259 -98,-370 -6,-120 -29,-269 -155,-266 -28,76 22,366 28,465 11,192 -50,395 72,491 z"
   id="path47" />
   <path
   class="fil12"
   d="m 15513,11078 c -70,-10 -123,-37 -214,-37 -169,198 -278,564 -225,724 27,81 22,50 90,47 78,-159 45,-325 160,-526 245,-2 154,120 329,103 2,-109 -16,-61 -51,-166 35,-127 100,-258 135,-399 19,-75 28,-125 56,-196 33,-83 69,-114 19,-207 -114,18 -80,43 -179,298 z"
   id="path49" />
   <path
   class="fil15"
   d="m 19574,10497 c 156,-75 -44,-616 321,-1068 354,-437 -53,-377 -57,-375 -186,184 -179,335 -259,600 -37,121 -45,756 -5,843 z"
   id="path51" />
   <path
   class="fil3"
   d="m 15077,16865 c 142,23 443,-177 761,-172 287,5 494,294 680,266 31,-154 -123,-205 -224,-292 -141,-122 -196,-118 -433,-122 -218,-4 -293,14 -471,85 -108,43 -307,102 -314,235 z"
   id="path53" />
   <path
   class="fil12"
   d="m 12953,12198 c -6,-131 -44,-130 -80,-228 -187,-510 -59,-564 -19,-803 -400,96 -218,1000 99,1031 z"
   id="path55" />
   <path
   class="fil16"
   d="m 16520,12456 c -61,105 -56,80 -68,201 168,4 212,-37 329,-91 91,-42 187,-62 291,-109 l 383,-219 c 50,-31 71,-36 91,-85 l -491,165 c -224,88 -254,100 -534,138 z"
   id="path57" />
   <path
   class="fil16"
   d="m 14855,12418 c 89,116 552,281 743,258 35,-190 -141,-181 -282,-209 -121,-24 -350,-129 -461,-49 z"
   id="path59" />
   <path
   class="fil17"
   d="m 14146,12575 6,-332 c -57,-63 -165,-139 -281,-145 -4,118 60,165 102,269 46,116 45,192 173,209 z"
   id="path61" />
   <path
   class="fil18"
   d="m 17805,12165 c -12,102 -32,323 25,403 71,-44 81,-165 109,-239 37,-99 90,-151 81,-252 -124,-12 -157,32 -215,88 z"
   id="path63" />
   <path
   class="fil19"
   d="m 17256,14240 c 93,-36 110,-148 113,-292 -52,8 -145,-10 -147,189 -1,109 0,57 34,103 z"
   id="path65" />
  </g>
 </g>
</svg>
